<svg xmlns="http://www.w3.org/2000/svg" viewBox="0 0 128 128" width="128" height="128">
  <!-- dark ground so the cream tree reads on light or dark tab bars -->
  <rect width="128" height="128" rx="28" fill="#16120e"/>

  <!-- sumi-ink tree, cream strokes -->
  <g fill="none" stroke="#f4f0e8" stroke-linecap="round" stroke-linejoin="round" transform="translate(64 66) scale(0.34) translate(-100 -160)">
    <path d="M 100 320 C 96 280 104 240 100 200 C 96 160 102 120 98 80 C 96 50 102 30 100 16" stroke-width="9" opacity="0.92"/>
    <path d="M 98 130 C 88 116 72 108 56 102 C 44 98 32 96 22 95" stroke-width="6.5" opacity="0.82"/>
    <path d="M 100 100 C 112 86 130 78 148 72 C 162 68 174 66 184 64" stroke-width="6.5" opacity="0.82"/>
    <path d="M 99 70 C 90 58 76 50 60 44" stroke-width="5" opacity="0.72"/>
    <path d="M 100 50 C 112 40 128 32 144 28" stroke-width="5" opacity="0.72"/>
    <path d="M 99 200 C 88 192 76 188 64 188" stroke-width="4.5" opacity="0.66"/>
  </g>

  <!-- gold leaf buds -->
  <g fill="#d4a24e">
    <circle cx="36" cy="98" r="2.6"/>
    <circle cx="92" cy="88" r="2.2"/>
    <circle cx="50" cy="76" r="1.8"/>
    <circle cx="88" cy="74" r="1.8"/>
  </g>
</svg>
